<svg width="539" height="100" viewBox="0 0 539 100" fill="none" xmlns="http://www.w3.org/2000/svg">
<path d="M37.5 40C37.5 38.6193 38.6193 37.5 40 37.5H60C61.3807 37.5 62.5 38.6193 62.5 40V60C62.5 61.3807 61.3807 62.5 60 62.5H40C38.6193 62.5 37.5 61.3807 37.5 60V40Z" fill="#10B981"/>
<path d="M6.53082e-07 41.6667C6.53082e-07 39.3655 1.86548 37.5 4.16667 37.5H14.9408C16.0458 37.5 17.1057 37.939 17.8871 38.7204L26.2204 47.0537C27.8476 48.6809 27.8476 51.3191 26.2204 52.9463L17.8871 61.2796C17.1057 62.061 16.0458 62.5 14.9408 62.5H4.16667C1.86548 62.5 6.53082e-07 60.6345 6.53082e-07 58.3333V41.6667Z" fill="#064E3B"/>
<path d="M41.6667 100C39.3655 100 37.5 98.1345 37.5 95.8333V85.0592C37.5 83.9542 37.939 82.8943 38.7204 82.1129L47.0537 73.7796C48.6809 72.1524 51.3191 72.1524 52.9463 73.7796L61.2796 82.1129C62.061 82.8943 62.5 83.9542 62.5 85.0592V95.8333C62.5 98.1345 60.6345 100 58.3333 100H41.6667Z" fill="#064E3B"/>
<path d="M58.3333 0C60.6345 -2.74414e-08 62.5 1.86548 62.5 4.16667V14.9408C62.5 16.0458 62.061 17.1057 61.2796 17.8871L52.9463 26.2204C51.3191 27.8476 48.6809 27.8476 47.0537 26.2204L38.7204 17.8871C37.939 17.1057 37.5 16.0458 37.5 14.9408V4.16667C37.5 1.86548 39.3655 2.26189e-07 41.6667 1.98748e-07L58.3333 0Z" fill="#064E3B"/>
<path d="M100 58.3333C100 60.6345 98.1345 62.5 95.8333 62.5H85.0592C83.9542 62.5 82.8943 62.061 82.1129 61.2796L73.7796 52.9463C72.1524 51.3191 72.1524 48.6809 73.7796 47.0537L82.1129 38.7204C82.8943 37.939 83.9542 37.5 85.0592 37.5H95.8333C98.1345 37.5 100 39.3655 100 41.6667V58.3333Z" fill="#064E3B"/>
<path d="M100 95.8333C100 98.1345 98.1345 100 95.8333 100H85.0592C83.9542 100 82.8943 99.561 82.1129 98.7796L67.8871 84.5537C67.1057 83.7723 66.6667 82.7125 66.6667 81.6074V70.8333C66.6667 68.5322 68.5321 66.6667 70.8333 66.6667H81.6074C82.7125 66.6667 83.7723 67.1057 84.5537 67.8871L98.7796 82.1129C99.561 82.8943 100 83.9542 100 85.0592V95.8333Z" fill="#064E3B"/>
<path d="M4.16667 100C1.86548 100 5.71539e-07 98.1345 4.70951e-07 95.8333L0 85.0592C-4.83041e-08 83.9542 0.438987 82.8943 1.22039 82.1129L15.4463 67.8871C16.2277 67.1057 17.2875 66.6667 18.3926 66.6667H29.1667C31.4679 66.6667 33.3333 68.5322 33.3333 70.8333V81.6074C33.3333 82.7125 32.8943 83.7723 32.1129 84.5537L17.8871 98.7796C17.1057 99.561 16.0458 100 14.9408 100H4.16667Z" fill="#064E3B"/>
<path d="M95.8333 2.88524e-07C98.1345 1.01735e-07 100 1.86548 100 4.16667V14.9408C100 16.0458 99.561 17.1057 98.7796 17.8871L84.5537 32.1129C83.7723 32.8943 82.7125 33.3333 81.6074 33.3333H70.8333C68.5322 33.3333 66.6667 31.4679 66.6667 29.1667V18.3926C66.6667 17.2875 67.1057 16.2277 67.8871 15.4463L82.1129 1.22039C82.8943 0.438989 83.9542 1.25276e-06 85.0592 1.16307e-06L95.8333 2.88524e-07Z" fill="#064E3B"/>
<path d="M5.56483e-05 4.16667C5.56483e-05 1.86548 1.86554 1.22188e-06 4.16672 1.22188e-06H14.9408C16.0459 1.22188e-06 17.1057 0.438988 17.8871 1.22039L32.113 15.4463C32.8944 16.2277 33.3334 17.2875 33.3334 18.3926V29.1667C33.3334 31.4679 31.4679 33.3333 29.1667 33.3333H18.3926C17.2875 33.3333 16.2277 32.8943 15.4463 32.1129L1.22044 17.8871C0.439043 17.1057 5.56483e-05 16.0458 5.56483e-05 14.9408V4.16667Z" fill="#064E3B"/>
<path d="M195.472 17.28V84H184.528V38.304L164.176 84H156.592L136.144 38.304V84H125.2V17.28H137.008L160.432 69.6L183.76 17.28H195.472ZM199.488 57.312C199.488 52 200.576 47.296 202.752 43.2C204.992 39.104 208 35.936 211.776 33.696C215.616 31.392 219.84 30.24 224.448 30.24C228.608 30.24 232.224 31.072 235.296 32.736C238.432 34.336 240.928 36.352 242.784 38.784V31.104H253.824V84H242.784V76.128C240.928 78.624 238.4 80.704 235.2 82.368C232 84.032 228.352 84.864 224.256 84.864C219.712 84.864 215.552 83.712 211.776 81.408C208 79.04 204.992 75.776 202.752 71.616C200.576 67.392 199.488 62.624 199.488 57.312ZM242.784 57.504C242.784 53.856 242.016 50.688 240.48 48C239.008 45.312 237.056 43.264 234.624 41.856C232.192 40.448 229.568 39.744 226.752 39.744C223.936 39.744 221.312 40.448 218.88 41.856C216.448 43.2 214.464 45.216 212.928 47.904C211.456 50.528 210.72 53.664 210.72 57.312C210.72 60.96 211.456 64.16 212.928 66.912C214.464 69.664 216.448 71.776 218.88 73.248C221.376 74.656 224 75.36 226.752 75.36C229.568 75.36 232.192 74.656 234.624 73.248C237.056 71.84 239.008 69.792 240.48 67.104C242.016 64.352 242.784 61.152 242.784 57.504ZM272.423 38.784C274.023 36.096 276.135 34.016 278.759 32.544C281.447 31.008 284.615 30.24 288.263 30.24V41.568H285.479C281.191 41.568 277.927 42.656 275.687 44.832C273.511 47.008 272.423 50.784 272.423 56.16V84H261.479V31.104H272.423V38.784ZM287.954 57.504C287.954 52.064 289.042 47.296 291.218 43.2C293.458 39.04 296.53 35.84 300.434 33.6C304.338 31.36 308.818 30.24 313.874 30.24C320.274 30.24 325.554 31.776 329.714 34.848C333.939 37.856 336.787 42.176 338.259 47.808H326.45C325.49 45.184 323.954 43.136 321.842 41.664C319.73 40.192 317.074 39.456 313.874 39.456C309.394 39.456 305.81 41.056 303.122 44.256C300.498 47.392 299.186 51.808 299.186 57.504C299.186 63.2 300.498 67.648 303.122 70.848C305.81 74.048 309.394 75.648 313.874 75.648C320.21 75.648 324.402 72.864 326.45 67.296H338.259C336.722 72.672 333.842 76.96 329.618 80.16C325.394 83.296 320.146 84.864 313.874 84.864C308.818 84.864 304.338 83.744 300.434 81.504C296.53 79.2 293.458 76 291.218 71.904C289.042 67.744 287.954 62.944 287.954 57.504ZM369.805 30.24C373.837 30.24 377.421 31.104 380.557 32.832C383.757 34.56 386.253 37.12 388.045 40.512C389.901 43.904 390.829 48 390.829 52.8V84H379.981V54.432C379.981 49.696 378.797 46.08 376.429 43.584C374.061 41.024 370.829 39.744 366.733 39.744C362.637 39.744 359.373 41.024 356.941 43.584C354.573 46.08 353.389 49.696 353.389 54.432V84H342.445V12.96H353.389V37.248C355.245 35.008 357.581 33.28 360.397 32.064C363.277 30.848 366.413 30.24 369.805 30.24ZM446.549 56.256C446.549 58.24 446.421 60.032 446.165 61.632H405.749C406.069 65.856 407.637 69.248 410.453 71.808C413.269 74.368 416.725 75.648 420.821 75.648C426.709 75.648 430.869 73.184 433.301 68.256H445.109C443.509 73.12 440.597 77.12 436.373 80.256C432.213 83.328 427.029 84.864 420.821 84.864C415.765 84.864 411.221 83.744 407.189 81.504C403.221 79.2 400.085 76 397.781 71.904C395.541 67.744 394.421 62.944 394.421 57.504C394.421 52.064 395.509 47.296 397.685 43.2C399.925 39.04 403.029 35.84 406.997 33.6C411.029 31.36 415.637 30.24 420.821 30.24C425.813 30.24 430.261 31.328 434.165 33.504C438.069 35.68 441.109 38.752 443.285 42.72C445.461 46.624 446.549 51.136 446.549 56.256ZM435.125 52.8C435.061 48.768 433.621 45.536 430.805 43.104C427.989 40.672 424.501 39.456 420.341 39.456C416.565 39.456 413.333 40.672 410.645 43.104C407.957 45.472 406.357 48.704 405.845 52.8H435.125ZM461.543 38.784C463.143 36.096 465.255 34.016 467.879 32.544C470.567 31.008 473.735 30.24 477.383 30.24V41.568H474.599C470.311 41.568 467.047 42.656 464.807 44.832C462.631 47.008 461.543 50.784 461.543 56.16V84H450.599V31.104H461.543V38.784ZM477.074 57.312C477.074 52 478.162 47.296 480.338 43.2C482.578 39.104 485.586 35.936 489.362 33.696C493.202 31.392 497.426 30.24 502.034 30.24C506.194 30.24 509.81 31.072 512.882 32.736C516.018 34.336 518.514 36.352 520.37 38.784V31.104H531.41V84H520.37V76.128C518.514 78.624 515.986 80.704 512.786 82.368C509.586 84.032 505.938 84.864 501.842 84.864C497.298 84.864 493.138 83.712 489.362 81.408C485.586 79.04 482.578 75.776 480.338 71.616C478.162 67.392 477.074 62.624 477.074 57.312ZM520.37 57.504C520.37 53.856 519.602 50.688 518.066 48C516.594 45.312 514.642 43.264 512.21 41.856C509.778 40.448 507.154 39.744 504.338 39.744C501.522 39.744 498.898 40.448 496.466 41.856C494.034 43.2 492.05 45.216 490.514 47.904C489.042 50.528 488.306 53.664 488.306 57.312C488.306 60.96 489.042 64.16 490.514 66.912C492.05 69.664 494.034 71.776 496.466 73.248C498.962 74.656 501.586 75.36 504.338 75.36C507.154 75.36 509.778 74.656 512.21 73.248C514.642 71.84 516.594 69.792 518.066 67.104C519.602 64.352 520.37 61.152 520.37 57.504Z" fill="#001711"/>
</svg>
